<svg xmlns="http://www.w3.org/2000/svg" viewBox="0 0 100 100">
  <!-- Outer Ring with Padding -->
  <circle cx="50" cy="50" r="44" fill="white" stroke="black" stroke-width="2"/>
  
  <!-- Tai Chi Symbol (Yin Yang) - Scaled Down -->
  <g transform="translate(10, 10) scale(0.8)">
    <circle cx="50" cy="50" r="44" fill="white" stroke="black" stroke-width="2"/>
    <path d="M50 6 A44 44 0 0 1 50 94 A22 22 0 0 1 50 50 A22 22 0 0 0 50 6" fill="black"/>
    <circle cx="50" cy="28" r="6" fill="white"/>
    <circle cx="50" cy="72" r="6" fill="black"/>
  </g>
  
  <!-- Simple Trigrams - Scaled Down and Moved Inward -->
  <g stroke="black" stroke-width="3" fill="none">
    <path d="M42 12 L58 12"/> <path d="M42 18 L58 18"/> <path d="M42 24 L58 24"/>
    <path d="M42 76 L48 76 M52 76 L58 76"/> <path d="M42 82 L48 82 M52 82 L58 82"/> <path d="M42 88 L48 88 M52 88 L58 88"/>
  </g>
</svg>
